<mxfile host="app.diagrams.net" modified="2021-03-13T12:54:42.404Z" agent="5.0 (Windows NT 10.0; Win64; x64) AppleWebKit/537.36 (KHTML, like Gecko) Chrome/88.0.4324.104 Safari/537.36" etag="Zvj_hWgm_wXh3Z6fauDM" version="14.4.8" type="github">
  <diagram id="Qysw3-rOo7-g8x6gWeUs" name="Page-1">
    <mxGraphModel dx="1422" dy="707" grid="1" gridSize="10" guides="1" tooltips="1" connect="1" arrows="1" fold="1" page="1" pageScale="1" pageWidth="700" pageHeight="1000" math="0" shadow="0">
      <root>
        <mxCell id="0" />
        <mxCell id="1" parent="0" />
        <mxCell id="IYrFxxv-hgy3-oWXNiMI-65" value="" style="rounded=0;whiteSpace=wrap;html=1;fontColor=#ffffff;fillColor=#FF9999;opacity=70;" parent="1" vertex="1">
          <mxGeometry x="80" y="350" width="1240" height="210" as="geometry" />
        </mxCell>
        <mxCell id="IYrFxxv-hgy3-oWXNiMI-7" value="&lt;font style=&quot;font-size: 27px;&quot;&gt;&lt;b style=&quot;font-size: 27px;&quot;&gt;&lt;span style=&quot;font-family: kaiti; color: rgb(0, 112, 193); font-size: 27px;&quot; lang=&quot;ZH-CN&quot;&gt;建立将变量筛选和风险预测有机融合的深度迁移学习模型&lt;/span&gt;&lt;/b&gt;&lt;/font&gt;" style="rounded=1;whiteSpace=wrap;html=1;fillColor=#ffff88;strokeColor=#36393d;fontSize=27;" parent="1" vertex="1">
          <mxGeometry x="200" y="370" width="1000" height="50" as="geometry" />
        </mxCell>
        <mxCell id="IYrFxxv-hgy3-oWXNiMI-47" style="edgeStyle=orthogonalEdgeStyle;rounded=0;orthogonalLoop=1;jettySize=auto;html=1;exitX=0.5;exitY=1;exitDx=0;exitDy=0;" parent="1" source="IYrFxxv-hgy3-oWXNiMI-7" target="IYrFxxv-hgy3-oWXNiMI-7" edge="1">
          <mxGeometry x="50" y="320" as="geometry" />
        </mxCell>
        <mxCell id="IYrFxxv-hgy3-oWXNiMI-8" value="&lt;font style=&quot;font-size: 20px&quot;&gt;深度迁移学习模型的构建&lt;/font&gt;" style="rounded=0;whiteSpace=wrap;html=1;" parent="1" vertex="1">
          <mxGeometry x="98" y="450" width="130" height="100" as="geometry" />
        </mxCell>
        <mxCell id="IYrFxxv-hgy3-oWXNiMI-12" value="&lt;font style=&quot;font-size: 20px&quot;&gt;参数设置与优化&lt;/font&gt;" style="rounded=0;whiteSpace=wrap;html=1;" parent="1" vertex="1">
          <mxGeometry x="428" y="450" width="142" height="100" as="geometry" />
        </mxCell>
        <mxCell id="IYrFxxv-hgy3-oWXNiMI-13" value="&lt;font style=&quot;font-size: 20px&quot;&gt;模型准确性的评估指标&lt;/font&gt;" style="rounded=0;whiteSpace=wrap;html=1;" parent="1" vertex="1">
          <mxGeometry x="600" y="450" width="130" height="100" as="geometry" />
        </mxCell>
        <mxCell id="IYrFxxv-hgy3-oWXNiMI-52" value="" style="edgeStyle=orthogonalEdgeStyle;rounded=0;orthogonalLoop=1;jettySize=auto;html=1;" parent="1" source="IYrFxxv-hgy3-oWXNiMI-12" target="IYrFxxv-hgy3-oWXNiMI-13" edge="1">
          <mxGeometry x="100" y="390" as="geometry">
            <Array as="points">
              <mxPoint x="588" y="495" />
              <mxPoint x="588" y="495" />
            </Array>
          </mxGeometry>
        </mxCell>
        <mxCell id="IYrFxxv-hgy3-oWXNiMI-51" value="" style="edgeStyle=orthogonalEdgeStyle;rounded=0;orthogonalLoop=1;jettySize=auto;html=1;" parent="1" source="IYrFxxv-hgy3-oWXNiMI-17" target="IYrFxxv-hgy3-oWXNiMI-12" edge="1">
          <mxGeometry x="100" y="390" as="geometry" />
        </mxCell>
        <mxCell id="IYrFxxv-hgy3-oWXNiMI-17" value="&lt;font style=&quot;font-size: 20px&quot;&gt;根据不同疾病模型设置隐藏层结构&lt;/font&gt;" style="rounded=0;whiteSpace=wrap;html=1;" parent="1" vertex="1">
          <mxGeometry x="258" y="450" width="140" height="100" as="geometry" />
        </mxCell>
        <mxCell id="IYrFxxv-hgy3-oWXNiMI-50" value="" style="edgeStyle=orthogonalEdgeStyle;rounded=0;orthogonalLoop=1;jettySize=auto;html=1;" parent="1" source="IYrFxxv-hgy3-oWXNiMI-8" target="IYrFxxv-hgy3-oWXNiMI-17" edge="1">
          <mxGeometry x="100" y="390" as="geometry" />
        </mxCell>
        <mxCell id="IYrFxxv-hgy3-oWXNiMI-63" value="" style="rounded=0;whiteSpace=wrap;html=1;strokeColor=#36393d;labelPosition=left;verticalLabelPosition=middle;align=right;verticalAlign=middle;fillColor=#CCE5FF;opacity=70;" parent="1" vertex="1">
          <mxGeometry x="80" y="70" width="1240" height="210" as="geometry" />
        </mxCell>
        <mxCell id="IYrFxxv-hgy3-oWXNiMI-73" value="" style="group;fontSize=27;opacity=70;strokeColor=#23445d;fillColor=#B3FF66;" parent="1" vertex="1" connectable="0">
          <mxGeometry x="80" y="630" width="1240" height="211" as="geometry" />
        </mxCell>
        <mxCell id="IYrFxxv-hgy3-oWXNiMI-72" value="" style="rounded=0;whiteSpace=wrap;html=1;strokeColor=#36393d;opacity=70;fillColor=#99FFFF;" parent="IYrFxxv-hgy3-oWXNiMI-73" vertex="1">
          <mxGeometry width="1240.0000000000005" height="211" as="geometry" />
        </mxCell>
        <mxCell id="IYrFxxv-hgy3-oWXNiMI-28" value="&lt;b style=&quot;font-size: 27px;&quot;&gt;&lt;span style=&quot;font-size: 27px; font-family: kaiti; color: rgb(0, 112, 193);&quot; lang=&quot;ZH-CN&quot;&gt;建立遗传风险预测精准诊疗模式&lt;/span&gt;&lt;/b&gt;" style="rounded=1;whiteSpace=wrap;html=1;fillColor=#ffff88;strokeColor=#36393d;fontSize=27;" parent="IYrFxxv-hgy3-oWXNiMI-73" vertex="1">
          <mxGeometry x="119.0362787878788" y="20.091888888888892" width="992" height="50" as="geometry" />
        </mxCell>
        <mxCell id="IYrFxxv-hgy3-oWXNiMI-38" value="&lt;font style=&quot;font-size: 20px&quot;&gt;预测因子重要性评估&lt;/font&gt;" style="rounded=0;whiteSpace=wrap;html=1;" parent="IYrFxxv-hgy3-oWXNiMI-73" vertex="1">
          <mxGeometry x="18.787878787878793" y="90.4252222222222" width="277.76" height="45.214285714285715" as="geometry" />
        </mxCell>
        <mxCell id="IYrFxxv-hgy3-oWXNiMI-39" value="&lt;font style=&quot;font-size: 20px&quot;&gt;预测模型临床实用性评估&lt;/font&gt;" style="rounded=0;whiteSpace=wrap;html=1;" parent="IYrFxxv-hgy3-oWXNiMI-73" vertex="1">
          <mxGeometry x="18.787878787878793" y="150.7142857142857" width="277.76" height="45.214285714285715" as="geometry" />
        </mxCell>
        <mxCell id="IYrFxxv-hgy3-oWXNiMI-40" value="&lt;font style=&quot;font-size: 20px&quot;&gt;预测模型的优化决策&lt;/font&gt;" style="rounded=0;whiteSpace=wrap;html=1;" parent="IYrFxxv-hgy3-oWXNiMI-73" vertex="1">
          <mxGeometry x="357.12" y="109.99857142857144" width="206.66336" height="70" as="geometry" />
        </mxCell>
        <mxCell id="IYrFxxv-hgy3-oWXNiMI-43" value="&lt;font style=&quot;font-size: 20px&quot;&gt;高危人群的筛查和精准医疗方案的制定&lt;/font&gt;" style="whiteSpace=wrap;html=1;rounded=0;" parent="IYrFxxv-hgy3-oWXNiMI-73" vertex="1">
          <mxGeometry x="605.12" y="110" width="347.2" height="70" as="geometry" />
        </mxCell>
        <mxCell id="IYrFxxv-hgy3-oWXNiMI-45" value="&lt;font style=&quot;font-size: 20px&quot;&gt;新模式的临床应用可行性&lt;/font&gt;" style="whiteSpace=wrap;html=1;rounded=0;" parent="IYrFxxv-hgy3-oWXNiMI-73" vertex="1">
          <mxGeometry x="992.0020557575763" y="109.9952222222222" width="225.45454545454552" height="70" as="geometry" />
        </mxCell>
        <mxCell id="Z3c_T7rNbFuGF1LWqC6E-1" value="" style="endArrow=classic;html=1;exitX=1;exitY=0.5;exitDx=0;exitDy=0;entryX=0;entryY=0.5;entryDx=0;entryDy=0;" parent="IYrFxxv-hgy3-oWXNiMI-73" source="IYrFxxv-hgy3-oWXNiMI-38" target="IYrFxxv-hgy3-oWXNiMI-40" edge="1">
          <mxGeometry width="50" height="50" relative="1" as="geometry">
            <mxPoint x="582.4242424242425" y="257.8888888888889" as="sourcePoint" />
            <mxPoint x="676.3636363636363" y="199.27777777777774" as="targetPoint" />
          </mxGeometry>
        </mxCell>
        <mxCell id="Z3c_T7rNbFuGF1LWqC6E-2" value="" style="endArrow=classic;html=1;exitX=1;exitY=0.5;exitDx=0;exitDy=0;entryX=0;entryY=0.5;entryDx=0;entryDy=0;" parent="IYrFxxv-hgy3-oWXNiMI-73" source="IYrFxxv-hgy3-oWXNiMI-39" target="IYrFxxv-hgy3-oWXNiMI-40" edge="1">
          <mxGeometry width="50" height="50" relative="1" as="geometry">
            <mxPoint x="582.4242424242425" y="257.8888888888889" as="sourcePoint" />
            <mxPoint x="676.3636363636363" y="199.27777777777774" as="targetPoint" />
          </mxGeometry>
        </mxCell>
        <mxCell id="Z3c_T7rNbFuGF1LWqC6E-3" value="" style="endArrow=classic;html=1;exitX=1;exitY=0.5;exitDx=0;exitDy=0;entryX=0;entryY=0.5;entryDx=0;entryDy=0;" parent="IYrFxxv-hgy3-oWXNiMI-73" source="IYrFxxv-hgy3-oWXNiMI-40" target="IYrFxxv-hgy3-oWXNiMI-43" edge="1">
          <mxGeometry width="50" height="50" relative="1" as="geometry">
            <mxPoint x="582.4242424242425" y="257.8888888888889" as="sourcePoint" />
            <mxPoint x="676.3636363636363" y="199.27777777777774" as="targetPoint" />
          </mxGeometry>
        </mxCell>
        <mxCell id="Z3c_T7rNbFuGF1LWqC6E-4" value="" style="endArrow=classic;html=1;exitX=1;exitY=0.5;exitDx=0;exitDy=0;entryX=0;entryY=0.5;entryDx=0;entryDy=0;" parent="IYrFxxv-hgy3-oWXNiMI-73" source="IYrFxxv-hgy3-oWXNiMI-43" target="IYrFxxv-hgy3-oWXNiMI-45" edge="1">
          <mxGeometry width="50" height="50" relative="1" as="geometry">
            <mxPoint x="582.4242424242425" y="257.8888888888889" as="sourcePoint" />
            <mxPoint x="676.3636363636363" y="199.27777777777774" as="targetPoint" />
          </mxGeometry>
        </mxCell>
        <mxCell id="PtDsFU5MatIJV5hEr-nG-1" value="" style="endArrow=classic;html=1;exitX=1;exitY=0.5;exitDx=0;exitDy=0;entryX=0;entryY=0.5;entryDx=0;entryDy=0;" parent="1" source="IYrFxxv-hgy3-oWXNiMI-14" target="PtDsFU5MatIJV5hEr-nG-2" edge="1">
          <mxGeometry width="50" height="50" relative="1" as="geometry">
            <mxPoint x="700" y="590" as="sourcePoint" />
            <mxPoint x="750" y="220" as="targetPoint" />
          </mxGeometry>
        </mxCell>
        <mxCell id="PtDsFU5MatIJV5hEr-nG-2" value="&lt;div style=&quot;font-size: 19px&quot;&gt;模拟研究：疾病模型、噪声信号比、因变量&lt;/div&gt;" style="rounded=0;whiteSpace=wrap;html=1;align=center;" parent="1" vertex="1">
          <mxGeometry x="765" y="170" width="380" height="45" as="geometry" />
        </mxCell>
        <mxCell id="PtDsFU5MatIJV5hEr-nG-3" value="&lt;div style=&quot;font-size: 19px&quot;&gt;&lt;font style=&quot;font-size: 19px&quot; face=&quot;Times New Roman&quot;&gt;真实数据分析：&lt;/font&gt;&lt;font style=&quot;font-size: 19px&quot; face=&quot;Times New Roman&quot;&gt;UK Biobank 、ADNI&lt;/font&gt;&lt;/div&gt;" style="rounded=0;whiteSpace=wrap;html=1;align=center;" parent="1" vertex="1">
          <mxGeometry x="765" y="225" width="380" height="45" as="geometry" />
        </mxCell>
        <mxCell id="PtDsFU5MatIJV5hEr-nG-4" value="" style="endArrow=classic;html=1;exitX=1;exitY=0.5;exitDx=0;exitDy=0;entryX=0;entryY=0.5;entryDx=0;entryDy=0;" parent="1" source="IYrFxxv-hgy3-oWXNiMI-14" target="PtDsFU5MatIJV5hEr-nG-3" edge="1">
          <mxGeometry width="50" height="50" relative="1" as="geometry">
            <mxPoint x="700" y="590" as="sourcePoint" />
            <mxPoint x="750" y="540" as="targetPoint" />
          </mxGeometry>
        </mxCell>
        <mxCell id="PtDsFU5MatIJV5hEr-nG-5" value="&lt;font style=&quot;font-size: 20px&quot;&gt;变量筛选准确性评估&lt;/font&gt;" style="rounded=0;whiteSpace=wrap;html=1;" parent="1" vertex="1">
          <mxGeometry x="1180" y="170" width="120" height="100" as="geometry" />
        </mxCell>
        <mxCell id="PtDsFU5MatIJV5hEr-nG-8" value="&lt;div style=&quot;font-size: 19px&quot;&gt;模拟研究：疾病模型、噪声信号比、因变量&lt;/div&gt;" style="rounded=0;whiteSpace=wrap;html=1;" parent="1" vertex="1">
          <mxGeometry x="770" y="440" width="380" height="45" as="geometry" />
        </mxCell>
        <mxCell id="PtDsFU5MatIJV5hEr-nG-10" value="&lt;span style=&quot;font-size: 20px&quot;&gt;模型预测准确性评估&lt;/span&gt;" style="rounded=0;whiteSpace=wrap;html=1;" parent="1" vertex="1">
          <mxGeometry x="1180" y="445" width="120" height="100" as="geometry" />
        </mxCell>
        <mxCell id="PtDsFU5MatIJV5hEr-nG-13" value="" style="endArrow=classic;html=1;exitX=1;exitY=0.5;exitDx=0;exitDy=0;entryX=0;entryY=0.5;entryDx=0;entryDy=0;" parent="1" source="IYrFxxv-hgy3-oWXNiMI-13" target="PtDsFU5MatIJV5hEr-nG-8" edge="1">
          <mxGeometry width="50" height="50" relative="1" as="geometry">
            <mxPoint x="700" y="590" as="sourcePoint" />
            <mxPoint x="750" y="540" as="targetPoint" />
          </mxGeometry>
        </mxCell>
        <mxCell id="PtDsFU5MatIJV5hEr-nG-14" value="" style="endArrow=classic;html=1;exitX=1;exitY=0.5;exitDx=0;exitDy=0;entryX=0;entryY=0.5;entryDx=0;entryDy=0;" parent="1" source="IYrFxxv-hgy3-oWXNiMI-13" target="DPukLD4_2zA5wbx1gpW1-1" edge="1">
          <mxGeometry width="50" height="50" relative="1" as="geometry">
            <mxPoint x="700" y="590" as="sourcePoint" />
            <mxPoint x="780" y="460" as="targetPoint" />
          </mxGeometry>
        </mxCell>
        <mxCell id="IYrFxxv-hgy3-oWXNiMI-1" value="&lt;div style=&quot;font-size: 20px&quot;&gt;&lt;font style=&quot;font-size: 20px&quot;&gt;多层感知机&lt;/font&gt;&lt;/div&gt;&lt;div style=&quot;font-size: 20px&quot;&gt;&lt;font style=&quot;font-size: 20px&quot;&gt;的构建&lt;/font&gt;&lt;/div&gt;" style="rounded=0;whiteSpace=wrap;html=1;strokeWidth=1;labelPosition=center;verticalLabelPosition=middle;align=center;verticalAlign=middle;gradientColor=#ffffff;" parent="1" vertex="1">
          <mxGeometry x="100" y="170" width="128" height="100" as="geometry" />
        </mxCell>
        <mxCell id="IYrFxxv-hgy3-oWXNiMI-3" value="&lt;font style=&quot;font-size: 20px&quot;&gt;参数设置与优化&lt;/font&gt;" style="whiteSpace=wrap;html=1;rounded=0;" parent="1" vertex="1">
          <mxGeometry x="250" y="170" width="148" height="100" as="geometry" />
        </mxCell>
        <mxCell id="IYrFxxv-hgy3-oWXNiMI-4" value="" style="edgeStyle=orthogonalEdgeStyle;rounded=0;orthogonalLoop=1;jettySize=auto;html=1;" parent="1" source="IYrFxxv-hgy3-oWXNiMI-1" target="IYrFxxv-hgy3-oWXNiMI-3" edge="1">
          <mxGeometry x="60" y="170" as="geometry" />
        </mxCell>
        <mxCell id="IYrFxxv-hgy3-oWXNiMI-5" value="&lt;font style=&quot;font-size: 20px&quot;&gt;变量重要性评分的估算和理论分布推导&lt;/font&gt;" style="whiteSpace=wrap;html=1;rounded=0;" parent="1" vertex="1">
          <mxGeometry x="430" y="170" width="138" height="100" as="geometry" />
        </mxCell>
        <mxCell id="IYrFxxv-hgy3-oWXNiMI-6" value="" style="edgeStyle=orthogonalEdgeStyle;rounded=0;orthogonalLoop=1;jettySize=auto;html=1;" parent="1" source="IYrFxxv-hgy3-oWXNiMI-3" target="IYrFxxv-hgy3-oWXNiMI-5" edge="1">
          <mxGeometry x="60" y="170" as="geometry" />
        </mxCell>
        <mxCell id="IYrFxxv-hgy3-oWXNiMI-14" value="&lt;font style=&quot;font-size: 20px&quot;&gt;变量筛选准确性的评估指标&lt;/font&gt;" style="rounded=0;whiteSpace=wrap;html=1;" parent="1" vertex="1">
          <mxGeometry x="600" y="170" width="128" height="100" as="geometry" />
        </mxCell>
        <mxCell id="IYrFxxv-hgy3-oWXNiMI-48" value="" style="edgeStyle=orthogonalEdgeStyle;rounded=0;orthogonalLoop=1;jettySize=auto;html=1;" parent="1" source="IYrFxxv-hgy3-oWXNiMI-5" target="IYrFxxv-hgy3-oWXNiMI-14" edge="1">
          <mxGeometry x="60" y="170" as="geometry" />
        </mxCell>
        <mxCell id="IYrFxxv-hgy3-oWXNiMI-2" value="&lt;font style=&quot;font-size: 27px;&quot;&gt;&lt;span style=&quot;font-size: 27px;&quot;&gt;&lt;span style=&quot;font-family: kaiti; color: rgb(0, 112, 193); font-size: 27px;&quot; lang=&quot;ZH-CN&quot;&gt;建立适用于全基因组数据的变量筛选方法&lt;/span&gt;&lt;/span&gt;&lt;/font&gt;" style="rounded=1;whiteSpace=wrap;html=1;fillColor=#ffff88;strokeColor=#36393d;fontStyle=1;fontSize=27;spacingTop=2;spacingLeft=0;rotation=0;align=center;" parent="1" vertex="1">
          <mxGeometry x="200" y="90" width="1000" height="50" as="geometry" />
        </mxCell>
        <mxCell id="DPukLD4_2zA5wbx1gpW1-1" value="&lt;div style=&quot;font-size: 19px&quot;&gt;&lt;font style=&quot;font-size: 19px&quot; face=&quot;Times New Roman&quot;&gt;真实数据分析：&lt;/font&gt;&lt;font style=&quot;font-size: 19px&quot; face=&quot;Times New Roman&quot;&gt;UK Biobank 、ADNI&lt;/font&gt;&lt;/div&gt;" style="rounded=0;whiteSpace=wrap;html=1;align=center;" vertex="1" parent="1">
          <mxGeometry x="770" y="505" width="380" height="45" as="geometry" />
        </mxCell>
        <mxCell id="DPukLD4_2zA5wbx1gpW1-8" value="" style="shape=flexArrow;endArrow=classic;html=1;width=18;endSize=5.79;strokeColor=#C73500;fillColor=#B266FF;opacity=80;" edge="1" parent="1">
          <mxGeometry width="50" height="50" relative="1" as="geometry">
            <mxPoint x="700" y="280" as="sourcePoint" />
            <mxPoint x="700" y="347" as="targetPoint" />
          </mxGeometry>
        </mxCell>
        <mxCell id="DPukLD4_2zA5wbx1gpW1-10" value="" style="endArrow=classic;html=1;exitX=1;exitY=0.5;exitDx=0;exitDy=0;entryX=0;entryY=0.5;entryDx=0;entryDy=0;" edge="1" parent="1" source="PtDsFU5MatIJV5hEr-nG-3" target="PtDsFU5MatIJV5hEr-nG-5">
          <mxGeometry width="50" height="50" relative="1" as="geometry">
            <mxPoint x="1140" y="270" as="sourcePoint" />
            <mxPoint x="1190" y="220" as="targetPoint" />
          </mxGeometry>
        </mxCell>
        <mxCell id="DPukLD4_2zA5wbx1gpW1-11" value="" style="endArrow=classic;html=1;exitX=1;exitY=0.5;exitDx=0;exitDy=0;" edge="1" parent="1" source="PtDsFU5MatIJV5hEr-nG-2">
          <mxGeometry width="50" height="50" relative="1" as="geometry">
            <mxPoint x="1150" y="190" as="sourcePoint" />
            <mxPoint x="1180" y="220" as="targetPoint" />
            <Array as="points" />
          </mxGeometry>
        </mxCell>
        <mxCell id="DPukLD4_2zA5wbx1gpW1-12" value="" style="endArrow=classic;html=1;entryX=0;entryY=0.5;entryDx=0;entryDy=0;" edge="1" parent="1" target="PtDsFU5MatIJV5hEr-nG-10">
          <mxGeometry width="50" height="50" relative="1" as="geometry">
            <mxPoint x="1150" y="530" as="sourcePoint" />
            <mxPoint x="1200" y="485" as="targetPoint" />
          </mxGeometry>
        </mxCell>
        <mxCell id="DPukLD4_2zA5wbx1gpW1-13" value="" style="endArrow=classic;html=1;entryX=0;entryY=0.5;entryDx=0;entryDy=0;exitX=1;exitY=0.5;exitDx=0;exitDy=0;" edge="1" parent="1" source="PtDsFU5MatIJV5hEr-nG-8" target="PtDsFU5MatIJV5hEr-nG-10">
          <mxGeometry width="50" height="50" relative="1" as="geometry">
            <mxPoint x="1150" y="470" as="sourcePoint" />
            <mxPoint x="1200" y="420" as="targetPoint" />
          </mxGeometry>
        </mxCell>
        <mxCell id="DPukLD4_2zA5wbx1gpW1-14" value="" style="shape=flexArrow;endArrow=classic;html=1;width=18;endSize=5.79;strokeColor=#C73500;fillColor=#B266FF;opacity=80;" edge="1" parent="1">
          <mxGeometry width="50" height="50" relative="1" as="geometry">
            <mxPoint x="699" y="560" as="sourcePoint" />
            <mxPoint x="699" y="627" as="targetPoint" />
          </mxGeometry>
        </mxCell>
      </root>
    </mxGraphModel>
  </diagram>
</mxfile>
